# xmcd
#
# Track frame offsets: 
#        150
#        17667
#        39687
#        57197
#        73242
#        87505
#        104060
#        123235
#        142317
#        155480
#
# Disc length: 2327 seconds
#
# Revision: 3
# Processed by: cddbd v1.4PL0 Copyright (c) Steve Scherf et al.
# Submitted via: ExactAudioCopy v0.90b4
#
DISCID=9509150a
DTITLE=Dan Seals - Classics Collection Vol. 2
DYEAR=1992
DGENRE=Country
TTITLE0=Love On Arrival
TTITLE1=Everything That Glitters (Is Not Gold)
TTITLE2=Big Wheels In The Moonlight
TTITLE3=Good Times
TTITLE4=One Friend
TTITLE5=Bop
TTITLE6=Addicted
TTITLE7=Still A Little Bit Of Love
TTITLE8=You Really Go For The Heart
TTITLE9=Wood
EXTD=YEAR: 1992 ID3G:   2
EXTT0=
EXTT1=
EXTT2=
EXTT3=
EXTT4=
EXTT5=
EXTT6=
EXTT7=
EXTT8=
EXTT9=
PLAYORDER=
